<svg class="icon" style="width: 1em; height: 1em;vertical-align: middle;fill: currentColor;overflow: hidden;" viewBox="0 0 1024 1024" version="1.1" xmlns="http://www.w3.org/2000/svg" p-id="1319"><path d="M425.06758 752.983493c0.162706 0.127913 0.348947 0.2415 0.581238 0.323365 22.923082 8.17417 46.626947 12.30935 70.662363 12.30935 35.33681 0 64.606437-9.205663 86.9974-27.363208 22.714328-18.419512 34.232662-42.651402 34.232662-72.025407 0-28.528754-11.654434-52.336996-34.640961-70.76367-22.650883-18.145266-51.798736-27.345812-86.630033-27.345812-1.877767 0-3.755534 0.037862-5.619998 0.11154l0-64.578808 91.841731 0c0.025583 0 0.052189 0.002047 0.079818 0.002047 0.025583 0 0.052189-0.002047 0.077771-0.002047l0.819668 0 0-0.020466c12.862959-0.472767 23.150256-11.044544 23.150256-24.026206s-10.287297-23.553439-23.150256-24.026206l0-0.022513-143.007041 0 0 0c0 0 0 0-0.001023 0-3.083222 0-5.581112 2.49789-5.581112 5.581112 0 0.073678 0.008186 0.146333 0.011256 0.218988l-0.011256-0.001023 0 149.507082 0 0c0 0.002047 0 0.002047 0 0.002047 0 4.64888 3.76986 8.41874 8.41874 8.41874 0.883113 0 1.733481-0.1361 2.532683-0.38988 0.002047 0 0.00307 0 0.005117 0 5.808286-1.400906 16.177448-2.677992 34.668591-2.677992 22.007223 0 40.556695 5.018294 55.132668 14.911618 14.140045 9.613962 21.015639 21.095457 21.015639 35.102473 0 13.510712-6.30152 24.677029-19.262716 34.136471-13.269211 9.68764-30.02585 14.598486-49.802266 14.598486-15.234983 0-30.890544-2.925632-46.772256-8.725732-0.230244-0.083911-0.444115-0.138146-0.648776-0.176009-2.332115-0.731664-4.812609-1.127683-7.385201-1.127683-13.610996 0-24.644283 11.034311-24.644283 24.645306C408.138002 740.494041 415.236678 749.745752 425.06758 752.983493zM854.35374 265.833461c0-38.809911-22.189372-56.839543-57.189514-56.839543l-28.304649-2.574638 0 24.445762c0 40.500413-33.377178 73.317843-74.513064 73.317843-41.167608 0-74.531484-32.81743-74.531484-73.317843l0-24.445762L403.055241 206.41928l0 24.445762c0 40.500413-33.381271 73.317843-74.513064 73.317843-41.169655 0-74.531484-32.81743-74.531484-73.317843l0-24.445762-27.812439 2.574638c-27.438932 0-57.205886 29.839609-57.205886 56.839543 0 0 0 451.081559 0 549.298488 0 45.409213 36.975123 75.760474 71.046103 75.760474 51.232848 0 450.361151-0.014326 538.057469-0.014326 38.931684 0 76.909647-27.267017 76.909647-70.838372C855.005586 691.809225 854.35374 265.833461 854.35374 265.833461zM818.52472 782.317589c0 50.593282-15.545044 70.685899-59.498092 70.685899-114.238834 0-380.152113 0-494.706125 0-36.868699 0-57.173141-19.296485-57.173141-56.839543 0-125.126812-1.954515-428.66399-1.954515-428.66399l613.597933 0C818.79078 367.499955 818.52472 656.972812 818.52472 782.317589zM693.570847 279.753495c26.999934 0 48.888454-21.554922 48.888454-48.131207l0-50.406017c0-26.576285-21.889543-48.109718-48.888454-48.109718-27.01733 0-48.925293 21.533432-48.925293 48.109718l0 50.406017C644.646578 258.198573 666.553517 279.753495 693.570847 279.753495zM327.747067 279.753495c27.018354 0 48.906873-21.554922 48.906873-48.131207l0-50.406017c0-26.576285-21.88852-48.109718-48.906873-48.109718-26.998911 0-48.904827 21.533432-48.904827 48.109718l0 50.406017C278.842241 258.198573 300.748157 279.753495 327.747067 279.753495z" p-id="1320"></path></svg>