<svg class="icon" style="width: 1em; height: 1em;vertical-align: middle;fill: currentColor;overflow: hidden;" viewBox="0 0 1024 1024" version="1.1" xmlns="http://www.w3.org/2000/svg" p-id="1058"><path d="M355.252515 734.054375c0 0.054235 0.004093 0.106424 0.004093 0.157589l0 0.303922 0.008186 0c0.24764 16.458857 13.660114 29.726022 30.175253 29.726022 16.518209 0 29.927613-13.267165 30.175253-29.726022l0.016373 0L415.631674 487.711827l-0.007163 0c0-0.033769 0.00307-0.066515 0.00307-0.100284 0-16.672728-13.514805-30.187533-30.187533-30.187533-16.670681 0-30.187533 13.514805-30.187533 30.187533 0 0.053212 0.004093 0.105401 0.004093 0.157589l0 246.12663C355.256608 733.951021 355.252515 734.002187 355.252515 734.054375zM533.039687 738.187509c21.13332 20.506033 49.106418 30.90487 83.149768 30.90487 30.426987 0 56.67786-9.131985 78.016865-27.14115 21.600971-18.229177 32.555463-40.792055 32.555463-67.058278 0-25.51921-10.092869-47.342238-29.995151-64.86431-19.717064-17.35425-44.24162-26.154683-72.894194-26.154683-15.075347 0-30.357402 2.625804-45.574988 7.821129 8.786107-18.147312 20.363793-34.358529 34.520211-48.315402 15.110139-14.896268 33.92874-28.956495 56.021921-41.884946 8.372691-4.485151 14.068414-13.314237 14.068414-23.476691 0-14.699794-11.916401-26.617218-26.616194-26.617218-5.476735 0-10.564613 1.654686-14.795984 4.489244l-3.751441 2.240017c-29.747511 17.750269-54.864562 37.331233-74.65121 58.20361-19.878746 20.965497-35.33374 43.790342-45.931099 67.833945-10.642384 24.150026-16.039301 48.7851-16.039301 73.224722C501.12379 690.454368 511.860319 717.637474 533.039687 738.187509zM562.46588 648.13247c10.063193-5.672186 18.567891-9.629311 25.301246-11.765975 7.049556-2.238994 15.057951-3.373841 23.800056-3.373841 16.870226 0 30.541597 4.114714 40.630373 12.229532 9.893324 7.956206 14.70184 18.077727 14.70184 30.940686 0 12.688997-4.544503 22.900569-13.896498 31.216979-9.528004 8.473999-21.36561 12.593829-36.189224 12.593829-16.612353 0-29.797653-4.858658-40.311101-14.854313-10.44284-9.920954-15.515369-22.282492-15.515369-37.790698C560.987203 660.350746 561.484529 653.90494 562.46588 648.13247zM327.747067 279.753495c27.018354 0 48.906873-21.554922 48.906873-48.131207l0-50.406017c0-26.576285-21.88852-48.109718-48.906873-48.109718-26.998911 0-48.904827 21.533432-48.904827 48.109718l0 50.406017C278.842241 258.198573 300.748157 279.753495 327.747067 279.753495zM693.570847 279.753495c26.999934 0 48.888454-21.554922 48.888454-48.131207l0-50.406017c0-26.576285-21.889543-48.109718-48.888454-48.109718-27.01733 0-48.925293 21.533432-48.925293 48.109718l0 50.406017C644.646578 258.198573 666.553517 279.753495 693.570847 279.753495zM854.35374 265.833461c0-38.809911-22.189372-56.839543-57.189514-56.839543l-28.304649-2.574638 0 24.445762c0 40.500413-33.377178 73.317843-74.513064 73.317843-41.167608 0-74.531484-32.81743-74.531484-73.317843l0-24.445762L403.055241 206.41928l0 24.445762c0 40.500413-33.381271 73.317843-74.513064 73.317843-41.169655 0-74.531484-32.81743-74.531484-73.317843l0-24.445762-27.812439 2.574638c-27.438932 0-57.205886 29.839609-57.205886 56.839543 0 0 0 451.081559 0 549.298488 0 45.409213 36.975123 75.760474 71.046103 75.760474 51.232848 0 450.361151-0.014326 538.057469-0.014326 38.931684 0 76.909647-27.267017 76.909647-70.838372C855.005586 691.809225 854.35374 265.833461 854.35374 265.833461zM818.52472 782.317589c0 50.593282-15.545044 70.685899-59.498092 70.685899-114.238834 0-380.152113 0-494.706125 0-36.868699 0-57.173141-19.296485-57.173141-56.839543 0-125.126812-1.954515-428.66399-1.954515-428.66399l613.597933 0C818.79078 367.499955 818.52472 656.972812 818.52472 782.317589z" p-id="1059"></path></svg>