<svg class="icon" style="width: 1em; height: 1em;vertical-align: middle;fill: currentColor;overflow: hidden;" viewBox="0 0 1024 1024" version="1.1" xmlns="http://www.w3.org/2000/svg" p-id="913"><path d="M605.899088 732.397642c0 0.039909 0.00307 0.079818 0.00307 0.119727l0 0.341784 0.00921 0c0.24764 16.458857 13.659091 29.726022 30.175253 29.726022 16.518209 0 29.927613-13.267165 30.175253-29.726022l0.01535 0L666.277224 486.055095l-0.005117 0c0-0.033769 0.002047-0.066515 0.002047-0.100284 0-16.672728-13.514805-30.187533-30.187533-30.187533-16.671705 0-30.187533 13.514805-30.187533 30.187533 0 0.039909 0.00307 0.077771 0.00307 0.11768l0 246.206448C605.902158 732.319871 605.899088 732.357733 605.899088 732.397642zM299.708478 744.671177c0 10.29139 8.341992 18.633383 18.633383 18.633383 0.494257 0 0.980327-0.035816 1.465374-0.073678l182.776813 0 0-0.025583c13.862729-0.295735 25.010627-11.619642 25.010627-25.555026 0-13.930267-11.148921-25.255197-25.010627-25.552979l0-0.031722-101.218286 0 2.059915-2.136663c30.055526-30.535457 51.683103-55.038524 64.283072-72.828702 12.694113-17.922185 21.700231-34.073026 26.768667-48.01148 5.099135-14.048971 7.686053-27.480888 7.686053-39.929408 0-28.076452-10.544147-51.55826-31.338752-69.792553-20.599154-18.061354-47.065945-27.221991-78.666664-27.221991-26.2652 0-52.127218 7.582699-77.028351 22.560832-0.020466 0.01228-0.029676 0.030699-0.047072 0.046049-0.836041 0.455371-1.65264 0.944512-2.428306 1.490957-6.436596 4.533246-10.642384 12.023848-10.642384 20.4958 0 13.8351 11.216459 25.050536 25.052582 25.050536 5.321192 0 10.251481-1.663896 14.308891-4.493338 1.904373-1.121544 3.827165-2.202155 5.78475-3.193739 12.798491-6.481621 25.934672-9.769504 39.043225-9.769504 17.089214 0 30.893614 4.676509 41.031509 13.898545 10.137895 9.224082 15.06716 21.183462 15.06716 36.56273 0 11.235902-2.821255 22.816658-8.384971 34.416857-5.737678 11.948123-18.3356 30.027897-37.44175 53.735855-11.338233 14.068414-25.098631 30.065759-41.136909 47.827285-5.262864 5.829775-31.78696 28.55229-45.718251 37.434587l0 0C303.725978 731.340567 299.708478 737.53464 299.708478 744.671177zM693.570847 279.753495c26.999934 0 48.888454-21.554922 48.888454-48.131207l0-50.406017c0-26.576285-21.889543-48.109718-48.888454-48.109718-27.01733 0-48.925293 21.533432-48.925293 48.109718l0 50.406017C644.646578 258.198573 666.553517 279.753495 693.570847 279.753495zM854.35374 265.833461c0-38.809911-22.189372-56.839543-57.189514-56.839543l-28.304649-2.574638 0 24.445762c0 40.500413-33.377178 73.317843-74.513064 73.317843-41.167608 0-74.531484-32.81743-74.531484-73.317843l0-24.445762L403.056264 206.41928l0 24.445762c0 40.500413-33.381271 73.317843-74.515111 73.317843-41.167608 0-74.529437-32.81743-74.529437-73.317843l0-24.445762-27.813462 2.574638c-27.438932 0-57.204863 29.839609-57.204863 56.839543 0 0 0 451.081559 0 549.298488 0 45.409213 36.975123 75.760474 71.046103 75.760474 51.232848 0 450.361151-0.014326 538.057469-0.014326 38.931684 0 76.909647-27.267017 76.909647-70.838372C855.005586 691.809225 854.35374 265.833461 854.35374 265.833461zM818.52472 782.317589c0 50.593282-15.545044 70.685899-59.498092 70.685899-114.238834 0-380.152113 0-494.706125 0-36.868699 0-57.173141-19.296485-57.173141-56.839543 0-125.126812-1.954515-428.66399-1.954515-428.66399l613.595886 0C818.788733 367.499955 818.52472 656.972812 818.52472 782.317589zM327.747067 279.753495c27.01733 0 48.906873-21.554922 48.906873-48.131207l0-50.406017c0-26.576285-21.889543-48.109718-48.906873-48.109718-26.999934 0-48.904827 21.533432-48.904827 48.109718l0 50.406017C278.842241 258.198573 300.747133 279.753495 327.747067 279.753495z" p-id="914"></path></svg>