<svg class="icon" style="width: 1em; height: 1em;vertical-align: middle;fill: currentColor;overflow: hidden;" viewBox="0 0 1024 1024" version="1.1" xmlns="http://www.w3.org/2000/svg" p-id="2276"><path d="M283.02961 741.771127c0 10.29139 8.341992 18.633383 18.633383 18.633383 0.494257 0 0.980327-0.035816 1.465374-0.073678l182.777837 0 0-0.025583c13.861706-0.297782 25.009603-11.621688 25.009603-25.555026s-11.148921-25.255197-25.009603-25.552979l0-0.031722-101.219309 0 2.060939-2.136663c30.054503-30.535457 51.68208-55.038524 64.282049-72.828702 12.695137-17.922185 21.701255-34.073026 26.767644-48.01148 5.100158-14.048971 7.687076-27.480888 7.687076-39.929408 0-28.078499-10.543124-51.560306-31.338752-69.794599-20.599154-18.061354-47.065945-27.220968-78.666664-27.220968-26.264177 0-52.127218 7.581676-77.028351 22.559808-0.020466 0.01228-0.029676 0.030699-0.046049 0.046049-0.836041 0.456395-1.653663 0.944512-2.429329 1.490957-6.436596 4.533246-10.642384 12.023848-10.642384 20.4958 0 13.8351 11.216459 25.051559 25.052582 25.051559 5.320169 0 10.250458-1.663896 14.307867-4.493338 1.905396-1.121544 3.828188-2.202155 5.786797-3.194762 12.798491-6.481621 25.934672-9.768481 39.043225-9.768481 17.089214 0 30.894637 4.675486 41.031509 13.897521 10.137895 9.224082 15.06716 21.185508 15.06716 36.564777 0 11.235902-2.821255 22.816658-8.385994 34.416857-5.735631 11.948123-18.333554 30.027897-37.440727 53.735855-11.338233 14.068414-25.098631 30.065759-41.135886 47.827285-5.262864 5.829775-31.787984 28.55229-45.719274 37.434587l0 0C287.046087 728.440517 283.02961 734.63459 283.02961 741.771127zM533.775444 504.241292c0.146333 0 0.289596-0.008186 0.434905-0.011256l122.409934 0-95.505167 214.340693 0.12382 0.077771c-2.117221 3.977591-3.321652 8.513908-3.321652 13.334703 0 15.697517 12.725836 28.420283 28.420283 28.420283 12.323677 0 22.811542-7.842619 26.753317-18.809391l126.399805-272.501324 0.033769-0.069585c0.912789-1.529843 1.444908-3.309372 1.444908-5.217838 0-5.647627-4.583388-10.225899-10.240225-10.229992l0 0L534.367939 453.575356c-0.197498-0.004093-0.393973-0.01535-0.592494-0.01535-13.994736 0-25.339108 11.346419-25.339108 25.341155S519.780709 504.241292 533.775444 504.241292zM693.570847 279.753495c26.999934 0 48.88743-21.554922 48.88743-48.131207l0-50.406017c0-26.576285-21.88852-48.109718-48.88743-48.109718-27.018354 0-48.925293 21.533432-48.925293 48.109718l0 50.406017C644.646578 258.198573 666.552493 279.753495 693.570847 279.753495zM854.35374 265.833461c0-38.809911-22.189372-56.839543-57.190537-56.839543l-28.304649-2.574638 0 24.445762c0 40.500413-33.377178 73.317843-74.513064 73.317843-41.166585 0-74.531484-32.81743-74.531484-73.317843l0-24.445762L403.055241 206.41928l0 24.445762c0 40.500413-33.380248 73.317843-74.514087 73.317843-41.167608 0-74.53046-32.81743-74.53046-73.317843l0-24.445762-27.812439 2.574638c-27.438932 0-57.204863 29.839609-57.204863 56.839543 0 0 0 451.081559 0 549.298488 0 45.409213 36.9741 75.760474 71.045079 75.760474 51.232848 0 450.361151-0.014326 538.057469-0.014326 38.931684 0 76.910671-27.267017 76.910671-70.838372C855.005586 691.809225 854.35374 265.833461 854.35374 265.833461zM818.523697 782.317589c0 50.593282-15.544021 70.685899-59.498092 70.685899-114.238834 0-380.15109 0-494.705102 0-36.868699 0-57.173141-19.296485-57.173141-56.839543 0-125.126812-1.954515-428.66399-1.954515-428.66399l613.595886 0C818.788733 367.499955 818.523697 656.972812 818.523697 782.317589zM327.746044 279.753495c27.018354 0 48.907896-21.554922 48.907896-48.131207l0-50.406017c0-26.576285-21.889543-48.109718-48.907896-48.109718-26.998911 0-48.904827 21.533432-48.904827 48.109718l0 50.406017C278.841218 258.198573 300.747133 279.753495 327.746044 279.753495z" p-id="2277"></path></svg>