<svg class="icon" style="width: 1em; height: 1em;vertical-align: middle;fill: currentColor;overflow: hidden;" viewBox="0 0 1024 1024" version="1.1" xmlns="http://www.w3.org/2000/svg" p-id="681"><path d="M620.339985 766.818593c34.833343 0 63.548338-14.938224 85.345784-44.396139 21.450545-28.980032 32.326243-67.000973 32.326243-113.001657 0-44.851511-10.869558-82.467223-32.307823-111.801319-21.801539-29.830399-49.849338-44.956911-83.366709-44.956911-35.32146 0-64.412009 14.968923-86.465281 44.490284-21.705348 29.05371-32.708959 67.112514-32.708959 113.12343 0 46.566572 10.666944 84.584444 31.703049 113.001657C556.255435 752.167918 585.012386 766.818593 620.339985 766.818593zM579.228659 530.829857c10.354835-18.513656 23.795962-27.513634 41.094954-27.513634l2.501984 0c16.22145 0 28.90533 9.134031 38.777165 27.92091 10.299577 19.61064 15.522532 46.530756 15.522532 80.013335 0 33.305547-5.411243 59.903322-16.086373 79.054497-10.268878 18.433838-23.74889 27.393907-41.210587 27.393907-17.455557 0-30.850635-8.951883-40.954761-27.365254-10.514471-19.153222-15.845896-46.191018-15.845896-80.361259C563.026652 576.663742 568.477804 550.037315 579.228659 530.829857zM413.836795 702.283788c-9.241478 7.696286-21.785166 11.598152-37.283138 11.598152-17.733896 0-36.094056-3.795443-54.796-11.30651-0.100284-0.039909-0.187265-0.056282-0.280386-0.083911-2.956332-1.171686-6.175653-1.822508-9.549493-1.822508-14.32731 0-25.940812 11.614525-25.940812 25.940812 0 10.637268 6.401804 19.770276 15.560394 23.775496 0.013303 0.014326 0.022513 0.031722 0.049119 0.041956 24.073278 10.042727 49.308009 15.131629 75.068719 15.131629 32.073486 0 59.074444-8.93551 80.253812-26.557866 21.455661-17.859763 32.334429-40.792055 32.334429-68.161403 0-11.036357-1.882883-21.642926-5.595438-31.532157-3.738138-9.943466-9.085936-18.570961-15.897062-25.638937-5.047969-5.232165-12.19474-9.872858-21.325701-13.858636 11.33107-6.611581 20.057825-14.250562 26.02063-22.792099 7.750521-11.104919 11.68104-24.855084 11.68104-40.869826 0-26.350135-10.04375-47.451732-29.854958-62.71639-19.407002-14.954597-46.050826-22.536272-79.19162-22.536272-24.562419 0-47.590901 4.468778-68.443835 13.282514l-3.124154 1.320065 0.025583 0.094144c-8.950859 3.416819-15.311731 12.078083-15.311731 22.230304 0 13.141298 10.650571 23.791869 23.790846 23.791869 4.212952 0 8.167007-1.100054 11.600199-3.0208 0.290619 0.038886 0.572028 0.019443 0.839111-0.073678 16.120143-5.649674 31.099299-8.505721 44.674479-8.505721 16.786315 0 30.43415 3.820002 40.564881 11.356652 9.801227 7.291057 14.56574 16.476253 14.56574 28.079522 0 12.942777-4.868891 22.502503-14.883989 29.226648-9.109472 6.116301-22.211884 9.619078-39.020712 10.451026-0.036839 0.002047-0.066515 0.016373-0.102331 0.021489-12.95915 1.130753-23.125697 12.003382-23.125697 25.255197 0 13.582343 10.67513 24.666796 24.091698 25.326828 18.629289 2.224668 26.628474 4.187369 30.040177 5.502317 5.372358 2.076288 10.352789 5.372358 14.804171 9.79304 7.579629 7.882528 11.265578 16.817014 11.265578 27.309996C427.343413 684.920328 422.9258 694.715415 413.836795 702.283788zM693.570847 279.753495c26.999934 0 48.888454-21.554922 48.888454-48.131207l0-50.406017c0-26.576285-21.889543-48.109718-48.888454-48.109718-27.01733 0-48.925293 21.533432-48.925293 48.109718l0 50.406017C644.646578 258.198573 666.553517 279.753495 693.570847 279.753495zM327.746044 279.753495c27.018354 0 48.907896-21.554922 48.907896-48.131207l0-50.406017c0-26.576285-21.889543-48.109718-48.907896-48.109718-26.998911 0-48.904827 21.533432-48.904827 48.109718l0 50.406017C278.841218 258.198573 300.747133 279.753495 327.746044 279.753495zM854.35374 265.834484c0-38.810934-22.189372-56.840566-57.189514-56.840566l-28.304649-2.574638 0 24.445762c0 40.500413-33.377178 73.317843-74.513064 73.317843-41.167608 0-74.531484-32.81743-74.531484-73.317843l0-24.445762L403.055241 206.41928l0 24.445762c0 40.500413-33.380248 73.317843-74.514087 73.317843-41.167608 0-74.53046-32.81743-74.53046-73.317843l0-24.445762-27.812439 2.574638c-27.438932 0-57.204863 29.839609-57.204863 56.840566 0 0 0 451.080535 0 549.297464 0 45.409213 36.9741 75.760474 71.045079 75.760474 51.232848 0 450.361151-0.014326 538.058492-0.014326 38.931684 0 76.909647-27.267017 76.909647-70.838372C855.005586 691.809225 854.35374 265.834484 854.35374 265.834484zM818.52472 782.317589c0 50.593282-15.545044 70.685899-59.498092 70.685899-114.238834 0-380.152113 0-494.706125 0-36.868699 0-57.173141-19.296485-57.173141-56.839543 0-125.126812-1.954515-428.66399-1.954515-428.66399l613.595886 0C818.788733 367.499955 818.52472 656.972812 818.52472 782.317589z" p-id="682"></path></svg>