<svg class="icon" style="width: 1em; height: 1em;vertical-align: middle;fill: currentColor;overflow: hidden;" viewBox="0 0 1024 1024" version="1.1" xmlns="http://www.w3.org/2000/svg" p-id="364"><path d="M9.6 934.848V180.16c0.512-0.64 1.344-1.344 1.344-1.984 1.792-17.792 9.664-33.216 21.184-46.336 19.072-21.696 43.52-31.936 72.32-31.936h88.512V29.888c0-2.368 0.64-4.672 1.024-7.04 1.344-8.512 8.768-10.432 14.784-13.952h13.312c14.272 5.12 17.792 16.192 17.408 30.08-0.512 17.088-0.128 34.368-0.128 51.52v9.024h546.24c0-20.288 0.384-40.128-0.128-59.904-0.384-14.144 2.624-25.536 17.344-30.72h13.376c12.48 5.248 17.024 14.656 16 27.968-0.832 14.912-0.192 29.824-0.192 44.672v18.432h8c27.904 0 55.744-0.128 83.52 0.128 5.888 0 11.648 0.256 17.28 1.408 29.248 6.784 52.032 22.656 65.28 50.368 3.264 6.912 5.632 14.4 8.384 21.568v768.128c-1.024 2.496-1.856 5.12-2.752 7.616-11.136 33.472-33.344 54.976-67.904 63.104-3.392 0.768-6.528 1.856-9.728 2.752H90.944c-0.384-0.384-0.832-1.152-1.344-1.28a81.024 81.024 0 0 1-35.584-12.096 85.12 85.12 0 0 1-36.864-42.496c-2.816-7.808-4.928-16.192-7.552-24.32zM56.32 375.68v545.92c0 25.856 19.904 46.848 46.912 46.848 272.896 0.128 545.856 0.128 818.752 0a46.08 46.08 0 0 0 47.104-47.36c0.128-179.264 0.128-358.528 0.128-537.856v-7.36C664.64 375.68 360.896 375.68 56.32 375.68z m0-47.36h912.576c0.256-1.344 0.256-2.24 0.256-3.008 0-44.608 0.256-89.216-0.128-133.76a40.64 40.64 0 0 0-1.984-11.52c-7.232-22.336-23.36-32.512-44.736-33.216-28.096-0.768-56.256-0.256-84.352-0.128-1.6 0-3.392 0.256-5.504 0.512 0 24.064 0.256 47.616-0.256 71.296a21.504 21.504 0 0 1-5.12 12.928c-7.744 8.512-17.728 9.152-28.352 4.992-6.976-2.752-12.736-11.52-12.736-20.544-0.128-18.688 0-37.504 0-56.192V147.2H239.616c0 22.08 0.256 43.712-0.128 65.28-0.256 14.912-4.928 23.424-20.928 26.24-9.664 1.728-25.856-5.312-25.6-20.224 0.256-21.44 0.128-42.752 0.128-64.192v-7.488h-84.48c-4.224 0-8.256 0.896-12.416 1.216-24.96 1.728-40.256 26.944-40 47.04 0.512 41.984 0.128 83.84 0.128 125.824v7.424z" fill="" p-id="365"></path><path d="M634.24 784.256c0 22.656-6.144 33.472-21.12 39.232-15.872 6.4-41.472 7.104-80.64 7.104a147.84 147.84 0 0 0-14.976-36.864c29.312 1.472 59.52 1.152 68.48 0.768 8.256 0 11.264-3.008 11.264-11.008v-65.856H426.304c-9.792 42.24-28.608 84.032-64.384 114.496a133.76 133.76 0 0 0-26.752-25.6c58.752-50.496 64.384-124.224 64.384-183.36V504.896h234.56v279.36h0.128z m-36.992-100.48v-55.744h-161.92c0 17.344-1.152 36.096-3.392 55.744h165.312z m-161.92-145.024v55.744h161.92v-55.744h-161.92z" fill="" p-id="366"></path></svg>