<svg class="icon" style="width: 1em; height: 1em;vertical-align: middle;fill: currentColor;overflow: hidden;" viewBox="0 0 1024 1024" version="1.1" xmlns="http://www.w3.org/2000/svg" p-id="13639"><path d="M1012.864 146.88c-13.376-28.096-36.416-44.16-66.176-51.072a82.816 82.816 0 0 0-17.344-1.408c-28.224-0.256-56.448-0.128-84.672-0.128h-8.192v-18.688c0-15.104-0.64-30.208 0.256-45.312 0.96-13.504-3.584-23.04-16.32-28.352h-13.504c-14.912 5.312-17.984 16.832-17.6 31.168 0.576 20.032 0.128 40.192 0.128 60.736H235.648v-9.216c0-17.344-0.384-34.88 0.128-52.224 0.384-14.08-3.2-25.344-17.6-30.528h-13.568c-6.08 3.52-13.696 5.568-15.04 14.144-0.32 2.432-1.024 4.8-1.024 7.168V94.208H98.752c-29.184 0-53.952 10.368-73.344 32.32a84.16 84.16 0 0 0-21.44 47.04c0 0.64-0.768 1.344-1.344 1.984V940.8c2.688 8.256 4.8 16.768 7.68 24.768 7.296 18.752 20.288 32.64 37.376 43.008 11.136 6.72 22.976 11.392 36.032 12.352 0.512 0.128 0.96 0.896 1.344 1.28h854.784c3.328-0.896 6.528-1.984 9.792-2.752 35.008-8.256 57.536-30.144 68.8-64l2.816-7.744V168.768c-2.688-7.296-5.056-14.848-8.384-21.888z m-37.248 234.56c0 181.76 0 363.52-0.128 545.408a46.72 46.72 0 0 1-47.744 48c-276.736 0.128-553.408 0.128-830.144 0a46.848 46.848 0 0 1-47.616-47.488V373.76c308.8 0 616.832 0 925.632 0.128v7.552z m-0.256-55.68H49.984v-7.552c0-42.56 0.384-84.992-0.128-127.552-0.256-20.416 15.232-46.016 40.576-47.744 4.224-0.256 8.384-1.216 12.608-1.216h85.632v7.552c0 21.76 0.128 43.328-0.128 65.088-0.256 15.168 16.192 22.336 25.984 20.608 16.128-2.88 20.928-11.52 21.248-26.688 0.384-21.888 0.128-43.776 0.128-66.176h553.792v12.608c0 18.944-0.128 38.08 0 57.024 0 9.152 5.888 17.984 12.992 20.8 10.752 4.224 20.8 3.584 28.8-5.056a22.464 22.464 0 0 0 5.12-13.12c0.576-24 0.32-47.872 0.32-72.256 2.112-0.256 3.84-0.512 5.568-0.512 28.48-0.128 57.024-0.64 85.504 0.128 21.632 0.64 38.08 11.008 45.376 33.664 1.216 3.712 2.112 7.68 2.112 11.648 0.256 45.248 0.128 90.432 0.128 135.68 0 0.832-0.128 1.728-0.256 3.072z" fill="" p-id="13640"></path><path d="M498.56 588.16l-25.792 16.128c16.064 22.528 30.592 44.032 43.456 64.384l28.992-16.128A1648.768 1648.768 0 0 0 498.56 588.16zM361.664 720.192h241.536c-22.656 30.08-54.272 69.248-95.04 117.568l27.328 22.592c16.128-21.504 38.656-49.92 67.712-85.376 18.112-23.552 32.128-41.792 41.728-54.72v-30.592H361.664v30.528z" fill="" p-id="13641"></path><path d="M514.624 514.112c41.856 60.096 99.264 108.928 172.224 146.496a18.24 18.24 0 0 0 3.264-4.8c9.6-16.128 15.488-25.728 17.728-28.992-74.112-30.016-132.608-75.648-175.488-136.832 3.2-5.312 3.136-6.464 6.4-9.664l-35.392-8.064c-42.944 65.472-106.24 120.192-189.952 164.224 7.488 10.752 13.952 20.352 19.328 28.992 76.16-42.88 136.832-93.44 181.888-151.36z" fill="" p-id="13642"></path></svg>