<svg class="icon" style="width: 1em; height: 1em;vertical-align: middle;fill: currentColor;overflow: hidden;" viewBox="0 0 1024 1024" version="1.1" xmlns="http://www.w3.org/2000/svg" p-id="1029"><path d="M352.798627 730.946594c0 0.054235 0.004093 0.106424 0.004093 0.157589l0 0.303922 0.007163 0c0.24764 16.458857 13.659091 29.726022 30.176276 29.726022 16.518209 0 29.928636-13.267165 30.176276-29.726022l0.01535 0L413.177785 484.604046l-0.00614 0c0-0.033769 0.002047-0.066515 0.002047-0.101307 0-16.671705-13.514805-30.187533-30.187533-30.187533-16.671705 0-30.187533 13.515828-30.187533 30.187533 0 0.053212 0.004093 0.105401 0.004093 0.157589l0 246.127653C352.80272 730.84324 352.798627 730.894406 352.798627 730.946594zM522.020726 505.971703c0.13303 0 0.26299-0.008186 0.394996-0.010233l122.449843 0-95.505167 214.337623 0.10847 0.069585c-1.681292 3.62762-2.62478 7.66661-2.62478 11.927657 0 15.697517 12.725836 28.420283 28.421306 28.420283 10.42749 0 19.539009-5.617951 24.483624-13.990642l0.004093 0.00614 0.028653-0.062422c0.920976-1.566682 1.695618-3.229554 2.305509-4.970198L727.734948 470.826252l0.039909-0.082888c0.907673-1.526773 1.437745-3.302209 1.437745-5.205559 0-5.647627-4.583388-10.225899-10.240225-10.228969l0 0L522.61322 455.308837c-0.197498-0.004093-0.393973-0.01535-0.592494-0.01535-13.994736 0-25.340131 11.345396-25.340131 25.340131S508.02599 505.971703 522.020726 505.971703zM693.570847 279.753495c26.999934 0 48.88743-21.554922 48.88743-48.131207l0-50.406017c0-26.576285-21.88852-48.109718-48.88743-48.109718-27.018354 0-48.925293 21.533432-48.925293 48.109718l0 50.406017C644.646578 258.198573 666.552493 279.753495 693.570847 279.753495zM854.35374 265.833461c0-38.809911-22.189372-56.839543-57.190537-56.839543l-28.304649-2.574638 0 24.445762c0 40.500413-33.377178 73.317843-74.513064 73.317843-41.166585 0-74.531484-32.81743-74.531484-73.317843l0-24.445762L403.055241 206.41928l0 24.445762c0 40.500413-33.380248 73.317843-74.514087 73.317843-41.167608 0-74.53046-32.81743-74.53046-73.317843l0-24.445762-27.812439 2.574638c-27.438932 0-57.204863 29.839609-57.204863 56.839543 0 0 0 451.081559 0 549.298488 0 45.409213 36.9741 75.760474 71.045079 75.760474 51.232848 0 450.361151-0.014326 538.057469-0.014326 38.930661 0 76.910671-27.267017 76.910671-70.838372C855.005586 691.809225 854.35374 265.833461 854.35374 265.833461zM818.523697 782.317589c0 50.593282-15.544021 70.685899-59.498092 70.685899-114.238834 0-380.15109 0-494.705102 0-36.868699 0-57.173141-19.296485-57.173141-56.839543 0-125.126812-1.954515-428.66399-1.954515-428.66399l613.595886 0C818.788733 367.499955 818.523697 656.972812 818.523697 782.317589zM327.746044 279.753495c27.018354 0 48.907896-21.554922 48.907896-48.131207l0-50.406017c0-26.576285-21.889543-48.109718-48.907896-48.109718-26.998911 0-48.904827 21.533432-48.904827 48.109718l0 50.406017C278.841218 258.198573 300.747133 279.753495 327.746044 279.753495z" p-id="1030"></path></svg>