<svg class="icon" style="width: 1em; height: 1em;vertical-align: middle;fill: currentColor;overflow: hidden;" viewBox="0 0 1024 1024" version="1.1" xmlns="http://www.w3.org/2000/svg" p-id="971"><path d="M356.417037 732.797755c0 0.039909 0.00307 0.079818 0.00307 0.119727l0 0.341784 0.00921 0c0.24764 16.458857 13.659091 29.726022 30.175253 29.726022 16.518209 0 29.928636-13.267165 30.176276-29.726022l0.014326 0L416.795173 486.454184l-0.005117 0c0-0.033769 0.002047-0.066515 0.002047-0.101307 0-16.671705-13.514805-30.187533-30.187533-30.187533-16.671705 0-30.187533 13.515828-30.187533 30.187533 0 0.039909 0.00307 0.078795 0.00307 0.118704l0 246.207471C356.420107 732.718961 356.417037 732.757846 356.417037 732.797755zM528.269034 610.28856c19.962657 17.630542 44.197618 26.570145 72.036663 26.570145 17.192567 0 32.861432-2.638083 46.750767-7.856945-6.995321 16.22452-18.189268 32.272008-33.393551 47.845705-13.892405 14.236236-29.703509 27.027563-47.145763 38.22458-0.282433 0.146333-0.569982 0.283456-0.847298 0.437975-8.096399 4.504594-13.579273 13.170974-13.579273 23.122627 0 14.588253 11.780301 26.412556 26.312272 26.412556 4.089132 0 7.960299-0.935302 11.411911-2.606361 0.029676-0.014326 0.060375-0.020466 0.090051-0.037862 0.073678-0.039909 0.148379-0.081864 0.222057-0.121773 0.74906-0.375553 1.478677-0.785899 2.186805-1.228991 37.081547-20.803815 68.285223-48.701189 92.850711-83.055624 26.828019-37.520545 40.432875-75.280544 40.432875-112.230084 0-33.04972-11.124362-60.554144-33.062-81.746816-21.88545-21.143553-50.326199-31.864732-84.530209-31.864732-30.422893 0-56.593949 9.058306-77.783551 26.923186-21.439288 18.075681-32.30987 40.483017-32.30987 66.597791C497.911632 570.759265 508.125251 592.498382 528.269034 610.28856zM571.903833 513.973958c9.691733-8.5487 21.697161-12.703323 36.700877-12.703323 16.408715 0 29.41596 4.9088 39.764656 15.005762 10.30674 10.058077 15.31787 22.698978 15.31787 38.646182 0 2.012843-0.449231 6.947226-2.512217 18.9854-16.307408 9.18008-33.139771 13.833053-50.068326 13.833053-14.911618 0-27.333532-4.231371-37.97387-12.933567-10.335393-8.444323-15.357779-18.111496-15.357779-29.5582C557.775045 532.582781 562.396295 522.352789 571.903833 513.973958zM693.570847 279.753495c26.999934 0 48.888454-21.554922 48.888454-48.131207l0-50.406017c0-26.576285-21.889543-48.109718-48.888454-48.109718-27.01733 0-48.925293 21.533432-48.925293 48.109718l0 50.406017C644.646578 258.198573 666.553517 279.753495 693.570847 279.753495zM854.35374 265.833461c0-38.809911-22.189372-56.839543-57.189514-56.839543l-28.304649-2.574638 0 24.445762c0 40.500413-33.377178 73.317843-74.513064 73.317843-41.167608 0-74.531484-32.81743-74.531484-73.317843l0-24.445762L403.055241 206.41928l0 24.445762c0 40.500413-33.380248 73.317843-74.514087 73.317843-41.167608 0-74.53046-32.81743-74.53046-73.317843l0-24.445762-27.812439 2.574638c-27.438932 0-57.204863 29.839609-57.204863 56.839543 0 0 0 451.081559 0 549.298488 0 45.409213 36.9741 75.760474 71.045079 75.760474 51.232848 0 450.361151-0.014326 538.058492-0.014326 38.931684 0 76.909647-27.267017 76.909647-70.838372C855.005586 691.809225 854.35374 265.833461 854.35374 265.833461zM818.52472 782.317589c0 50.593282-15.545044 70.685899-59.498092 70.685899-114.238834 0-380.152113 0-494.706125 0-36.868699 0-57.173141-19.296485-57.173141-56.839543 0-125.126812-1.954515-428.66399-1.954515-428.66399l613.595886 0C818.788733 367.499955 818.52472 656.972812 818.52472 782.317589zM327.746044 279.753495c27.018354 0 48.907896-21.554922 48.907896-48.131207l0-50.406017c0-26.576285-21.889543-48.109718-48.907896-48.109718-26.998911 0-48.904827 21.533432-48.904827 48.109718l0 50.406017C278.841218 258.198573 300.747133 279.753495 327.746044 279.753495z" p-id="972"></path></svg>