<svg class="icon" style="width: 1em; height: 1em;vertical-align: middle;fill: currentColor;overflow: hidden;" viewBox="0 0 1024 1024" version="1.1" xmlns="http://www.w3.org/2000/svg" p-id="855"><path d="M291.090193 747.535411c0 10.29139 8.341992 18.633383 18.633383 18.633383 0.494257 0 0.980327-0.035816 1.465374-0.073678l182.776813 0 0-0.027629c13.862729-0.295735 25.009603-11.618619 25.009603-25.552979 0-13.932314-11.147898-25.255197-25.009603-25.552979l0-0.031722-101.218286 0 2.059915-2.136663c30.054503-30.537504 51.68208-55.038524 64.283072-72.828702 12.694113-17.922185 21.700231-34.075073 26.767644-48.01148 5.100158-14.048971 7.687076-27.482935 7.687076-39.929408 0-28.077475-10.544147-51.560306-31.338752-69.793576-20.600177-18.061354-47.065945-27.219945-78.666664-27.219945-26.266224 0-52.128241 7.582699-77.029374 22.559808-0.020466 0.01228-0.029676 0.030699-0.046049 0.045025-0.836041 0.456395-1.653663 0.944512-2.428306 1.490957-6.437619 4.535293-10.642384 12.024871-10.642384 20.496823 0 13.836123 11.216459 25.051559 25.052582 25.051559 5.322216 0 10.253528-1.664919 14.310937-4.495384 1.904373-1.12052 3.826142-2.201132 5.783727-3.191692 12.797467-6.482645 25.934672-9.769504 39.043225-9.769504 17.08819 0 30.893614 4.675486 41.030485 13.898545 10.138918 9.223059 15.068184 21.182438 15.068184 36.561707 0 11.235902-2.822278 22.816658-8.385994 34.416857-5.736655 11.948123-18.334577 30.02585-37.440727 53.735855-11.338233 14.066367-25.098631 30.065759-41.136909 47.827285-5.262864 5.827729-31.78696 28.55229-45.718251 37.434587l0 0C295.10667 734.204801 291.090193 740.39785 291.090193 747.535411zM657.49214 704.610786c-9.241478 7.696286-21.785166 11.598152-37.283138 11.598152-17.733896 0-36.094056-3.795443-54.796-11.30651-0.099261-0.039909-0.186242-0.056282-0.279363-0.083911-2.956332-1.171686-6.176676-1.822508-9.550517-1.822508-14.328333 0-25.940812 11.614525-25.940812 25.940812 0 10.637268 6.401804 19.772322 15.561417 23.775496 0.013303 0.014326 0.021489 0.031722 0.048095 0.041956 24.073278 10.042727 49.308009 15.131629 75.068719 15.131629 32.072463 0 59.074444-8.93551 80.253812-26.557866 21.455661-17.859763 32.334429-40.792055 32.334429-68.161403 0-11.036357-1.882883-21.642926-5.596462-31.532157-3.737114-9.945513-9.085936-18.570961-15.897062-25.638937-5.046946-5.232165-12.193717-9.872858-21.325701-13.858636 11.332093-6.611581 20.058848-14.250562 26.02063-22.792099 7.751544-11.104919 11.682064-24.855084 11.682064-40.869826 0-26.350135-10.044774-47.450708-29.854958-62.71639-19.408025-14.953573-46.051849-22.536272-79.19162-22.536272-24.562419 0-47.589878 4.468778-68.443835 13.282514l-3.124154 1.321088 0.025583 0.094144c-8.950859 3.415796-15.311731 12.07706-15.311731 22.230304 0 13.139252 10.650571 23.790846 23.790846 23.790846 4.212952 0 8.167007-1.100054 11.600199-3.0208 0.290619 0.037862 0.572028 0.019443 0.839111-0.074701 16.120143-5.649674 31.099299-8.505721 44.674479-8.505721 16.786315 0 30.43415 3.821025 40.564881 11.356652 9.801227 7.291057 14.56574 16.476253 14.56574 28.079522 0 12.942777-4.868891 22.502503-14.883989 29.226648-9.109472 6.116301-22.211884 9.619078-39.020712 10.451026-0.036839 0.002047-0.066515 0.016373-0.101307 0.021489-12.95915 1.130753-23.12672 12.003382-23.12672 25.255197 0 13.582343 10.67513 24.666796 24.091698 25.326828 18.630313 2.224668 26.628474 4.189416 30.040177 5.502317 5.371334 2.078335 10.351766 5.372358 14.803147 9.79304 7.580652 7.882528 11.266601 16.817014 11.266601 27.309996C670.998759 687.244256 666.579099 697.04139 657.49214 704.610786zM327.746044 279.753495c27.018354 0 48.907896-21.554922 48.907896-48.131207l0-50.406017c0-26.576285-21.889543-48.109718-48.907896-48.109718-26.998911 0-48.904827 21.533432-48.904827 48.109718l0 50.406017C278.841218 258.198573 300.747133 279.753495 327.746044 279.753495zM693.570847 279.753495c26.999934 0 48.88743-21.554922 48.88743-48.131207l0-50.406017c0-26.576285-21.88852-48.109718-48.88743-48.109718-27.018354 0-48.925293 21.533432-48.925293 48.109718l0 50.406017C644.646578 258.198573 666.552493 279.753495 693.570847 279.753495zM854.35374 265.833461c0-38.809911-22.189372-56.839543-57.190537-56.839543l-28.304649-2.574638 0 24.445762c0 40.500413-33.377178 73.317843-74.513064 73.317843-41.166585 0-74.531484-32.81743-74.531484-73.317843l0-24.445762L403.055241 206.41928l0 24.445762c0 40.500413-33.380248 73.317843-74.514087 73.317843-41.167608 0-74.53046-32.81743-74.53046-73.317843l0-24.445762-27.812439 2.574638c-27.438932 0-57.204863 29.839609-57.204863 56.839543 0 0 0 451.081559 0 549.298488 0 45.409213 36.9741 75.760474 71.045079 75.760474 51.232848 0 450.361151-0.014326 538.057469-0.014326 38.931684 0 76.910671-27.267017 76.910671-70.838372C855.005586 691.809225 854.35374 265.833461 854.35374 265.833461zM818.523697 782.317589c0 50.593282-15.544021 70.685899-59.498092 70.685899-114.238834 0-380.15109 0-494.705102 0-36.868699 0-57.173141-19.296485-57.173141-56.839543 0-125.126812-1.954515-428.66399-1.954515-428.66399l613.595886 0C818.788733 367.499955 818.523697 656.972812 818.523697 782.317589z" p-id="856"></path></svg>