<svg class="icon" style="width: 1em; height: 1em;vertical-align: middle;fill: currentColor;overflow: hidden;" viewBox="0 0 1024 1024" version="1.1" xmlns="http://www.w3.org/2000/svg" p-id="652"><path d="M598.469885 733.720777c0 0.039909 0.00307 0.079818 0.00307 0.119727l0 0.341784 0.00921 0c0.24764 16.458857 13.658068 29.726022 30.175253 29.726022 16.517185 0 29.927613-13.267165 30.175253-29.726022l0.01535 0L658.848021 487.37823l-0.00614 0c0.001023-0.033769 0.00307-0.066515 0.00307-0.101307 0-16.671705-13.515828-30.187533-30.187533-30.187533-16.672728 0-30.187533 13.515828-30.187533 30.187533 0 0.039909 0.00307 0.078795 0.00307 0.118704l0 246.207471C598.472955 733.643006 598.469885 733.680868 598.469885 733.720777zM423.383218 704.556551c-9.240455 7.695263-21.784142 11.598152-37.282115 11.598152-17.733896 0-36.094056-3.795443-54.796-11.308557-0.106424-0.041956-0.200568-0.060375-0.299829-0.090051-2.951215-1.165546-6.164397-1.814322-9.531074-1.814322-14.32731 0-25.940812 11.612479-25.940812 25.940812 0 10.637268 6.404873 19.774369 15.566534 23.777543 0.013303 0.014326 0.020466 0.027629 0.044002 0.037862 24.072255 10.044774 49.308009 15.133675 75.068719 15.133675 32.072463 0 59.07342-8.93551 80.252789-26.559912 21.456684-17.859763 32.335453-40.792055 32.335453-68.159356 0-11.036357-1.882883-21.644973-5.596462-31.532157-3.737114-9.945513-9.085936-18.570961-15.897062-25.640983-5.046946-5.230118-12.19474-9.872858-21.325701-13.858636 11.33107-6.611581 20.058848-14.248516 26.02063-22.790052 7.751544-11.104919 11.682064-24.855084 11.682064-40.869826 0-26.351158-10.044774-47.451732-29.854958-62.717414-19.408025-14.953573-46.051849-22.536272-79.19162-22.536272-24.562419 0-47.589878 4.468778-68.443835 13.282514l-3.124154 1.321088 0.025583 0.094144c-8.951883 3.415796-15.312754 12.07706-15.312754 22.230304 0 13.140275 10.651594 23.790846 23.791869 23.790846 4.212952 0 8.167007-1.099031 11.599176-3.019777 0.291642 0.038886 0.573051 0.020466 0.840134-0.073678 16.120143-5.650697 31.099299-8.506744 44.674479-8.506744 16.786315 0 30.43415 3.821025 40.564881 11.356652 9.801227 7.291057 14.56574 16.477276 14.56574 28.080545 0 12.94073-4.868891 22.500457-14.883989 29.224602-9.110495 6.118348-22.211884 9.621125-39.020712 10.451026-0.041956 0.002047-0.076748 0.016373-0.11461 0.025583-12.95301 1.136893-23.113417 12.003382-23.113417 25.25315 0 13.580297 10.676154 24.666796 24.093744 25.326828 18.629289 2.222621 26.627451 4.187369 30.039153 5.500271 5.371334 2.078335 10.351766 5.374404 14.803147 9.795087 7.580652 7.882528 11.266601 16.817014 11.266601 27.309996C436.89086 687.190021 432.472224 696.986131 423.383218 704.556551zM854.35374 265.834484c0-38.810934-22.189372-56.840566-57.190537-56.840566l-28.304649-2.574638 0 24.445762c0 40.500413-33.377178 73.317843-74.513064 73.317843-41.166585 0-74.531484-32.81743-74.531484-73.317843l0-24.445762L403.055241 206.41928l0 24.445762c0 40.500413-33.380248 73.317843-74.514087 73.317843-41.167608 0-74.53046-32.81743-74.53046-73.317843l0-24.445762-27.812439 2.574638c-27.438932 0-57.204863 29.839609-57.204863 56.840566 0 0 0 451.080535 0 549.297464 0 45.409213 36.9741 75.760474 71.045079 75.760474 51.232848 0 450.361151-0.014326 538.057469-0.014326 38.931684 0 76.910671-27.267017 76.910671-70.838372C855.005586 691.809225 854.35374 265.834484 854.35374 265.834484zM818.523697 782.317589c0 50.593282-15.544021 70.685899-59.498092 70.685899-114.238834 0-380.15109 0-494.705102 0-36.868699 0-57.173141-19.296485-57.173141-56.839543 0-125.126812-1.954515-428.66399-1.954515-428.66399l613.595886 0C818.788733 367.499955 818.523697 656.972812 818.523697 782.317589zM693.570847 279.753495c26.999934 0 48.88743-21.554922 48.88743-48.131207l0-50.406017c0-26.576285-21.88852-48.109718-48.88743-48.109718-27.018354 0-48.925293 21.533432-48.925293 48.109718l0 50.406017C644.646578 258.198573 666.552493 279.753495 693.570847 279.753495zM327.746044 279.753495c27.018354 0 48.907896-21.554922 48.907896-48.131207l0-50.406017c0-26.576285-21.889543-48.109718-48.907896-48.109718-26.998911 0-48.904827 21.533432-48.904827 48.109718l0 50.406017C278.841218 258.198573 300.747133 279.753495 327.746044 279.753495z" p-id="653"></path></svg>