<svg class="icon" style="width: 1em; height: 1em;vertical-align: middle;fill: currentColor;overflow: hidden;" viewBox="0 0 1024 1024" version="1.1" xmlns="http://www.w3.org/2000/svg" p-id="1886"><path d="M622.04072 765.248841c34.833343 0 63.548338-14.938224 85.34476-44.396139 21.450545-28.980032 32.327266-67.000973 32.327266-113.001657 0-44.851511-10.870582-82.467223-32.307823-111.801319-21.802562-29.830399-49.850361-44.956911-83.365686-44.956911-35.322483 0-64.414055 14.968923-86.467327 44.490284-21.703301 29.05371-32.707936 67.112514-32.707936 113.12343 0 46.566572 10.666944 84.584444 31.703049 113.001657C557.95617 750.598166 586.714144 765.248841 622.04072 765.248841zM580.928371 529.260106c10.354835-18.513656 23.798009-27.513634 41.095977-27.513634l2.501984 0c16.22145 0 28.904307 9.134031 38.777165 27.922956 10.299577 19.609617 15.522532 46.529733 15.522532 80.012312 0 33.305547-5.412266 59.903322-16.086373 79.054497-10.268878 18.433838-23.74889 27.393907-41.210587 27.393907-17.455557 0-30.851659-8.951883-40.955784-27.365254-10.513448-19.153222-15.844873-46.191018-15.844873-80.361259C564.727387 575.092967 570.177516 548.467563 580.928371 529.260106zM284.28623 743.384881c0 10.29139 8.341992 18.633383 18.633383 18.633383 0.494257 0 0.980327-0.035816 1.465374-0.073678l182.776813 0 0-0.027629c13.862729-0.295735 25.010627-11.618619 25.010627-25.552979 0-13.932314-11.148921-25.255197-25.010627-25.552979l0-0.031722-101.218286 0 2.059915-2.136663c30.055526-30.537504 51.683103-55.038524 64.283072-72.828702 12.694113-17.922185 21.700231-34.075073 26.768667-48.01148 5.099135-14.048971 7.686053-27.482935 7.686053-39.929408 0-28.078499-10.544147-51.560306-31.338752-69.794599-20.599154-18.061354-47.065945-27.219945-78.666664-27.219945-26.2652 0-52.127218 7.581676-77.028351 22.559808-0.019443 0.011256-0.029676 0.030699-0.045025 0.044002-0.837064 0.456395-1.654686 0.945535-2.430352 1.49198-6.436596 4.53427-10.642384 12.024871-10.642384 20.496823 0 13.8351 11.216459 25.051559 25.052582 25.051559 5.321192 0 10.251481-1.663896 14.308891-4.494361 1.904373-1.121544 3.827165-2.202155 5.78475-3.193739 12.798491-6.481621 25.934672-9.768481 39.043225-9.768481 17.089214 0 30.893614 4.675486 41.031509 13.897521 10.137895 9.224082 15.06716 21.184485 15.06716 36.563754 0 11.235902-2.821255 22.816658-8.384971 34.416857-5.737678 11.948123-18.3356 30.02585-37.44175 53.735855-11.338233 14.066367-25.098631 30.065759-41.136909 47.827285-5.262864 5.827729-31.78696 28.55229-45.718251 37.434587l0 0C288.302707 730.054271 284.28623 736.248344 284.28623 743.384881zM327.746044 279.753495c27.018354 0 48.907896-21.554922 48.907896-48.131207l0-50.406017c0-26.576285-21.889543-48.109718-48.907896-48.109718-26.998911 0-48.904827 21.533432-48.904827 48.109718l0 50.406017C278.841218 258.198573 300.747133 279.753495 327.746044 279.753495zM693.570847 279.753495c26.999934 0 48.88743-21.554922 48.88743-48.131207l0-50.406017c0-26.576285-21.88852-48.109718-48.88743-48.109718-27.018354 0-48.925293 21.533432-48.925293 48.109718l0 50.406017C644.646578 258.198573 666.552493 279.753495 693.570847 279.753495zM854.35374 265.833461c0-38.809911-22.189372-56.839543-57.190537-56.839543l-28.304649-2.574638 0 24.445762c0 40.500413-33.377178 73.317843-74.513064 73.317843-41.166585 0-74.531484-32.81743-74.531484-73.317843l0-24.445762L403.055241 206.41928l0 24.445762c0 40.500413-33.380248 73.317843-74.514087 73.317843-41.167608 0-74.53046-32.81743-74.53046-73.317843l0-24.445762-27.812439 2.574638c-27.438932 0-57.204863 29.839609-57.204863 56.839543 0 0 0 451.081559 0 549.298488 0 45.409213 36.9741 75.760474 71.045079 75.760474 51.232848 0 450.361151-0.014326 538.057469-0.014326 38.931684 0 76.910671-27.267017 76.910671-70.838372C855.005586 691.809225 854.35374 265.833461 854.35374 265.833461zM818.523697 782.317589c0 50.593282-15.544021 70.685899-59.498092 70.685899-114.238834 0-380.15109 0-494.705102 0-36.868699 0-57.173141-19.296485-57.173141-56.839543 0-125.126812-1.954515-428.66399-1.954515-428.66399l613.595886 0C818.788733 367.499955 818.523697 656.972812 818.523697 782.317589z" p-id="1887"></path></svg>