<svg class="icon" style="width: 1em; height: 1em;vertical-align: middle;fill: currentColor;overflow: hidden;" viewBox="0 0 1024 1024" version="1.1" xmlns="http://www.w3.org/2000/svg" p-id="5894"><path d="M846.774623 177.036066c-61.711504 0-111.725594 48.070832-111.725594 107.370403 0 31.106462 13.763468 59.117422 35.759435 78.719876l-134.800126 269.801842c-4.160763-0.457418-8.400321-0.695848-12.687974-0.695848-10.692526 0-21.020756 1.443885-30.80868 4.13518l-105.394399-147.049101c15.664771-18.486026 25.058722-42.059931 25.058722-67.75515 0-59.292408-50.021254-107.36324-111.728664-107.36324-61.70434 0-111.725594 48.070832-111.725594 107.36324 0 20.570501 6.018064 39.782052 16.45374 56.114019l-86.889953 99.558483c-12.772908-4.894474-26.704199-7.573489-41.293475-7.573489-61.70434 0-111.728664 48.063669-111.728664 107.359146 0 59.299571 50.025347 107.370403 111.728664 107.370403 61.70434 0 111.728664-48.070832 111.728664-107.370403 0-20.905122-6.226818-40.411385-16.986883-56.914244l90.1236-97.746208c12.033058 4.246721 25.025976 6.568602 38.587853 6.568602 10.115382 0 19.915585-1.295506 29.234835-3.714602l106.733906 146.903791c-15.523555 18.433838-24.828478 41.914622-24.828478 67.479881 0 59.292408 50.021254 107.36324 111.732757 107.36324 61.70434 0 111.728664-48.070832 111.728664-107.36324 0-31.096229-13.770632-59.102073-35.752272-78.712713l135.116327-269.772166c4.060479 0.427742 8.18031 0.659009 12.360516 0.659009 61.70741 0 111.725594-48.070832 111.725594-107.367333C958.500217 225.107921 908.483056 177.036066 846.774623 177.036066zM176.99411 725.617216c-27.932166 0-50.578955-21.754466-50.578955-48.595788 0-26.841322 22.646789-48.595788 50.578955-48.595788 27.932166 0 50.571792 21.754466 50.571792 48.595788C227.565902 703.862749 204.926276 725.617216 176.99411 725.617216zM400.447345 470.166219c-27.932166 0-50.575886-21.76163-50.575886-48.602951 0-26.834158 22.64372-48.595788 50.575886-48.595788 27.932166 0 50.575886 21.76163 50.575886 48.595788C451.02323 448.405613 428.379511 470.166219 400.447345 470.166219zM623.321388 788.199553c-27.932166 0-50.575886-21.754466-50.575886-48.599881 0-26.841322 22.64372-48.602951 50.575886-48.602951 27.932166 0 50.571792 21.76163 50.571792 48.602951C673.889087 766.445086 651.253554 788.199553 623.321388 788.199553zM846.774623 333.010443c-27.932166 0-50.575886-21.76163-50.575886-48.602951s22.64372-48.602951 50.575886-48.602951c27.928073 0 50.571792 21.76163 50.571792 48.602951S874.703719 333.010443 846.774623 333.010443z" p-id="5895"></path></svg>